PathFileType	4	(X/Y/Z)	C:\Github\BTS_project\Data\sports2d_results\test4 Exam_2026-03-06_143128_tvc2_Sports2D\test4 Exam_2026-03-06_143128_tvc2_Sports2D_px_person00.trc
DataRate	CameraRate	NumFrames	NumMarkers	Units	OrigDataRate	OrigDataStartFrame	OrigNumFrames
30.0	30.0	10	22	m	30.0	240	321
Frame#	Time	Hip			RHip			RKnee			RAnkle			RBigToe			RSmallToe			RHeel			LHip			LKnee			LAnkle			LBigToe			LSmallToe			LHeel			Neck			Head			Nose			RShoulder			RElbow			RWrist			LShoulder			LElbow			LWrist			
		X1	Y1	Z1	X2	Y2	Z2	X3	Y3	Z3	X4	Y4	Z4	X5	Y5	Z5	X6	Y6	Z6	X7	Y7	Z7	X8	Y8	Z8	X9	Y9	Z9	X10	Y10	Z10	X11	Y11	Z11	X12	Y12	Z12	X13	Y13	Z13	X14	Y14	Z14	X15	Y15	Z15	X16	Y16	Z16	X17	Y17	Z17	X18	Y18	Z18	X19	Y19	Z19	X20	Y20	Z20	X21	Y21	Z21	X22	Y22	Z22
240	8.024999999999999	321.17373474507485	712.0864677413628	0.0	279.31846789275585	724.5654883821879	0.0	292.8400716814149	871.1446970182064	0.0	320.88412113862927	1002.0594832709955	0.0	328.26197621830994	1047.349391668889	0.0	307.324035959667	1044.62829638657	0.0	334.0788228298607	1008.7429271617849	0.0	367.42254825115066	710.3960468527862	0.0	400.16795489361454	843.6035225428213	0.0	369.27407257332254	915.6582457651027	0.0	410.78765571871213	969.1374834105247	0.0	419.92977362879	955.0057461317351	0.0	356.62623223264967	919.1271332340403	0.0	289.4947597863853	494.93524590662287	0.0	269.19849773935255	386.06365551515285	0.0	276.5988055914301	444.688392971779	0.0	221.50605376160715	541.268049273074	0.0	147.73956929258426	606.7278960397042	0.0	60.40701909820483	657.5974358596357	0.0	370.3904294771442	516.16321610708	0.0	458.85651903363765	546.4485303442714	0.0	553.3481568575764	540.5798159108538	0.0
241	8.058437499999998	321.6265065027132	712.3063554460405	0.0	279.34487076925666	726.6543437320661	0.0	294.13054211096903	872.7695039688274	0.0	320.6940524056047	1002.5652896064203	0.0	328.3835098411354	1046.706649115736	0.0	307.0242655445295	1045.0088280421498	0.0	333.40203170825015	1010.3614824405797	0.0	367.7601580409917	712.4198392488096	0.0	399.55882152979166	843.9545881847512	0.0	365.97526479515784	910.7965128558274	0.0	402.7808201682795	964.646114463239	0.0	412.84028631415356	950.9720700423326	0.0	353.3903020223277	913.4416587287515	0.0	290.66758170953887	493.57524295803125	0.0	272.1412434990317	384.36332082869313	0.0	278.18940271219157	441.03516055426235	0.0	222.16683333084848	539.049498569402	0.0	146.06071383492468	602.9309244856069	0.0	58.29922839521436	651.0051237347843	0.0	371.391588085275	515.067337611241	0.0	459.38447784599236	546.6115332506538	0.0	553.8360556079135	541.9215358960296	0.0
242	8.091874999999998	321.80138437789714	711.1371101039634	0.0	279.321488639725	726.7677353975489	0.0	294.5562896243811	872.3799098605903	0.0	320.26730527033067	1001.432979712038	0.0	329.64078522034504	1044.9114351350786	0.0	307.32523692226596	1043.9196041257774	0.0	332.28554186496297	1009.8864086547715	0.0	367.22583036989363	713.7095178785207	0.0	399.1979102426245	844.3596915824842	0.0	362.8320463551713	905.2836329697442	0.0	390.9301725381239	960.1533773865526	0.0	403.0692018778784	946.5400463890584	0.0	349.9751501391902	906.6321199178249	0.0	291.6347366112441	491.92385184306977	0.0	274.0510256261344	383.3275080269432	0.0	280.0502191266723	437.9792638312009	0.0	222.39081684661465	537.2572493067161	0.0	144.32815357011222	599.1289173699671	0.0	55.98367802067608	644.682999369721	0.0	372.5955713641156	514.2885797505761	0.0	459.4336489164001	546.9969318058503	0.0	554.1149303983946	545.8373394589034	0.0
243	8.125312499999998	321.3917586480014	709.5533874557337	0.0	278.9843012604513	724.3955171899231	0.0	294.66934912765464	870.8364583272307	0.0	320.09032377052165	1000.3882244563252	0.0	331.26382375914886	1045.4508140877276	0.0	308.0478814267116	1044.7121299603843	0.0	331.2461059392069	1008.8711778403668	0.0	365.94469430551635	713.5201989214615	0.0	398.48379288672464	844.4990684810244	0.0	359.9189421942042	901.0921964295667	0.0	379.65288357635734	957.3782444171111	0.0	394.18139624418427	943.8979257638936	0.0	347.0032350840568	901.0140800987299	0.0	292.1407445111522	489.1073380935197	0.0	274.99107141733566	382.71171680279434	0.0	281.9129236901648	436.01788564583734	0.0	222.54303248251074	535.3476567791965	0.0	143.08493117186035	595.3449609211976	0.0	52.93047345970539	638.9570063549188	0.0	373.3987052990788	513.3112373952066	0.0	459.1917290863465	547.544107507911	0.0	553.9582426195884	550.9537801909037	0.0
244	8.15875	320.6159596750382	708.8772032721347	0.0	278.17087119099216	722.3800111395886	0.0	294.6993361012759	869.9252573486958	0.0	320.42795498457895	1000.3028550266793	0.0	331.8864187790581	1047.9634067100644	0.0	308.16129313033764	1047.039392811559	0.0	331.00369501972176	1009.0788900534113	0.0	364.72673350324	713.091140284961	0.0	397.40150967726277	844.4217913788023	0.0	356.6983418831537	898.9111262457534	0.0	371.47164533551484	955.9335503150278	0.0	387.7243969244272	942.7757413351264	0.0	344.38605748835	898.0534745858366	0.0	292.4967668100593	486.8186269143878	0.0	276.27762339425436	382.3914240143257	0.0	283.5485619472155	435.23157963313747	0.0	222.79006964625785	533.6756475344357	0.0	142.04612012973374	592.2470063329413	0.0	49.1134733185906	634.0924393938725	0.0	373.9031402961473	512.5157295990466	0.0	459.42511576609314	548.65371698186	0.0	553.3700027629593	556.1632716708283	0.0
245	8.1921875	319.94772023909843	708.5174405261657	0.0	277.3023716136658	722.0676226640566	0.0	294.50284054168765	869.6708105586549	0.0	320.8160354982419	1000.018811646363	0.0	331.39701656517224	1048.6265761185664	0.0	307.04644980710384	1046.8781817256286	0.0	331.351790955241	1009.5423793640223	0.0	364.09269914561025	712.7837352722273	0.0	396.15537101572806	843.9676146407039	0.0	353.4833074094008	897.6645650877806	0.0	365.43982995984175	954.3071458614543	0.0	382.6358139924073	941.6348551410117	0.0	341.76504716568604	897.0219984714538	0.0	293.26125731144657	486.9871940516032	0.0	278.69351001584585	382.23227845646863	0.0	285.13524313824814	435.45368426139305	0.0	222.86419055109135	532.6089753459684	0.0	141.01954066508208	590.4447614816113	0.0	45.89076247010967	629.9183654302894	0.0	374.4169292808764	512.5780988608248	0.0	460.16068593485306	550.4622291038178	0.0	552.1539447174063	561.1078968483664	0.0
246	8.225624999999999	319.59891507540954	707.1791137265533	0.0	277.14950012632295	721.5430892946183	0.0	293.9885153474996	868.8554215294039	0.0	320.86281217559406	999.2003696048662	0.0	330.73146763865043	1048.1532128682056	0.0	305.2776268716979	1045.059771958182	0.0	331.45437483017906	1009.4800715708941	0.0	364.0462821722582	711.4710510435832	0.0	394.5769001296957	843.1034926958953	0.0	351.2997986360266	896.4236342770314	0.0	360.6405608543854	952.9832521861316	0.0	378.06564363287964	940.4215820601833	0.0	339.50247206914315	896.3401557948919	0.0	294.2563420226632	488.4716066897558	0.0	281.2203486153248	382.1032405398114	0.0	286.81032823661343	436.00544808978043	0.0	222.72370064107295	531.7698409172972	0.0	140.32563726583953	589.2966416866024	0.0	44.53241851421231	626.0348325342206	0.0	374.62804643830486	513.3977269873891	0.0	460.69351095898577	552.3732284039321	0.0	550.4610160078787	565.7626627930069	0.0
247	8.259062499999999	319.38312939639616	705.0516421021956	0.0	277.497401092391	719.3672227818768	0.0	292.9971512601545	867.6064038474685	0.0	320.60269822999766	999.5494221122539	0.0	330.4209945651003	1050.573160218893	0.0	303.91749149837887	1046.4532618385851	0.0	331.25023399742923	1010.5113077953717	0.0	364.2283178766247	708.9959292179386	0.0	392.8265456759249	842.454231444815	0.0	350.2095853282925	895.3311507859364	0.0	357.1380561599076	953.0366147287568	0.0	374.2383138675251	940.0649566403897	0.0	338.1819155752857	895.3415691866854	0.0	294.7378303791645	488.7775900505678	0.0	282.55811828434685	381.75055188602516	0.0	288.0016028544608	435.80810309037565	0.0	222.69476459303183	530.7272976880608	0.0	140.19186187755062	587.710400171226	0.0	44.357239864395176	622.4021570083912	0.0	374.4350654873415	514.16564659809	0.0	460.81784765149104	554.1199765874526	0.0	549.1923877268566	569.92993222212	0.0
248	8.292499999999999	319.1229682793594	703.4306984258892	0.0	277.25861735593895	716.9469319140512	0.0	291.626078051404	867.0666123581146	0.0	320.03384654279864	1001.8216534605729	0.0	329.98517738057956	1055.7656899531557	0.0	303.4000183753124	1051.6714819557305	0.0	330.9970778972921	1013.5110533035411	0.0	364.1349261018386	707.1481984769007	0.0	391.63764770607713	843.0430495822869	0.0	349.0409225604213	894.9956480060376	0.0	354.0795859870216	953.420825662314	0.0	370.8712591282604	941.0066047105832	0.0	337.2192745312625	894.4475401247166	0.0	294.5101682452271	487.85854387898144	0.0	282.742379641735	381.06063812987634	0.0	288.09061687519625	434.67256166348875	0.0	222.96699161499103	529.7698472239041	0.0	140.28763150612667	585.9565650794589	0.0	43.70418465139658	619.5283049889365	0.0	374.3402483135897	514.3436773598214	0.0	461.01691004339443	556.1241029399781	0.0	549.2909607104551	573.3514659671645	0.0
249	8.325937499999998	318.80698847284515	702.911253576496	0.0	276.15728794089966	715.7796109115835	0.0	290.55303373003494	867.0558534338049	0.0	319.12433698283076	1004.2835850998466	0.0	328.91578840586703	1059.4968553977394	0.0	303.2863689786643	1056.7171109518772	0.0	330.15392553473214	1016.7150684053311	0.0	363.68549852085556	706.9855846961681	0.0	391.10363682241655	844.7370735067448	0.0	347.10234419799883	895.8031745592232	0.0	350.7083253280798	953.0450851881103	0.0	367.39113101089885	942.9543681908011	0.0	335.4890214647346	894.3890056052907	0.0	293.9953549199242	487.03465448562474	0.0	282.48898221555834	380.3054687919606	0.0	287.4554995000193	433.4522297969006	0.0	223.2583252402553	529.2273930599903	0.0	140.01893274685213	584.9751348486534	0.0	42.362013442941944	617.6658868782425	0.0	374.65951526044734	513.9924601608143	0.0	461.4801223399825	558.2198251134623	0.0	550.7595432080122	576.113739314749	0.0
